<mxfile host="app.diagrams.net" modified="2020-09-19T10:16:32.763Z" agent="5.0 (Windows NT 10.0; Win64; x64) AppleWebKit/537.36 (KHTML, like Gecko) Chrome/85.0.4183.83 Safari/537.36" etag="Ol3m3tEm2-VOwoKVPwoa" version="13.7.3" type="github">
  <diagram id="tYT-ZHBSsuqsEgF5MK0a" name="Page-1">
    <mxGraphModel dx="1775" dy="1224" grid="1" gridSize="10" guides="1" tooltips="1" connect="1" arrows="1" fold="1" page="1" pageScale="1" pageWidth="1169" pageHeight="827" math="0" shadow="0">
      <root>
        <mxCell id="0" />
        <mxCell id="1" parent="0" />
        <mxCell id="MVIskVAGgqlM6cvmi6DJ-5" value="ui" style="shape=folder;fontStyle=1;spacingTop=10;tabWidth=40;tabHeight=14;tabPosition=left;html=1;shadow=0;labelPosition=left;verticalLabelPosition=top;align=right;verticalAlign=bottom;labelBorderColor=#000000;labelBackgroundColor=none;" vertex="1" parent="1">
          <mxGeometry x="650" y="-32" width="1300" height="890" as="geometry" />
        </mxCell>
        <mxCell id="MVIskVAGgqlM6cvmi6DJ-6" value="&lt;p style=&quot;margin: 0px ; margin-top: 4px ; text-align: center&quot;&gt;&lt;b&gt;MainActivity&lt;/b&gt;&lt;/p&gt;&lt;hr size=&quot;1&quot;&gt;&lt;p style=&quot;margin: 0px ; margin-left: 4px&quot;&gt;+ dialog: AlertDialog = null&lt;/p&gt;&lt;p style=&quot;margin: 0px ; margin-left: 4px&quot;&gt;- dialogEditText : EditText = null&lt;/p&gt;&lt;p style=&quot;margin: 0px ; margin-left: 4px&quot;&gt;- dialogSpinner : Spinner = null&lt;/p&gt;&lt;p style=&quot;margin: 0px ; margin-left: 4px&quot;&gt;- listTasks : RecyclerView&lt;/p&gt;&lt;p style=&quot;margin: 0px ; margin-left: 4px&quot;&gt;- lblNoTasks : TextView&lt;/p&gt;&lt;p style=&quot;margin: 0px ; margin-left: 4px&quot;&gt;- mProjects : Project&lt;/p&gt;&lt;p style=&quot;margin: 0px ; margin-left: 4px&quot;&gt;- mTaskViewModel : TaskViewModel&lt;/p&gt;&lt;p style=&quot;margin: 0px ; margin-left: 4px&quot;&gt;- adapter : TasksAdapter&lt;/p&gt;&lt;p style=&quot;margin: 0px ; margin-left: 4px&quot;&gt;- sortMethod : SortMethod&lt;/p&gt;&lt;hr size=&quot;1&quot;&gt;&lt;p style=&quot;margin: 0px ; margin-left: 4px&quot;&gt;+ onCreate(savedInstanceState: Bundle) : void&lt;/p&gt;&lt;p style=&quot;margin: 0px ; margin-left: 4px&quot;&gt;- configureViewModel() : void&lt;/p&gt;&lt;p style=&quot;margin: 0px ; margin-left: 4px&quot;&gt;- getProjects() : void&lt;/p&gt;&lt;p style=&quot;margin: 0px ; margin-left: 4px&quot;&gt;- updateProjects(projects : List&amp;lt;Project&amp;gt;) : void&lt;/p&gt;&lt;p style=&quot;margin: 0px ; margin-left: 4px&quot;&gt;- getTasks() : void&lt;/p&gt;&lt;p style=&quot;margin: 0px ; margin-left: 4px&quot;&gt;+ onCreateOptionsMenu(menu : Menu) : boolean&lt;/p&gt;&lt;p style=&quot;margin: 0px ; margin-left: 4px&quot;&gt;+ onOptionsItemselected(item : MenuItem) : boolean&lt;/p&gt;&lt;p style=&quot;margin: 0px ; margin-left: 4px&quot;&gt;+ onDeleteTask(task : Task) : void&lt;/p&gt;&lt;p style=&quot;margin: 0px ; margin-left: 4px&quot;&gt;- onPositiveButtonClick(dialogInterface : DialogInterface) : void&lt;/p&gt;&lt;p style=&quot;margin: 0px ; margin-left: 4px&quot;&gt;- showAddTaskDialog() : void&lt;/p&gt;&lt;p style=&quot;margin: 0px ; margin-left: 4px&quot;&gt;- addTask(task : Task) : void&lt;/p&gt;&lt;p style=&quot;margin: 0px ; margin-left: 4px&quot;&gt;- updateTasks(tasks : Lis&amp;lt;Task&amp;gt;) : void&lt;/p&gt;&lt;p style=&quot;margin: 0px ; margin-left: 4px&quot;&gt;- getAddTaskDialog() : AlertDialog&lt;/p&gt;&lt;p style=&quot;margin: 0px ; margin-left: 4px&quot;&gt;- populateDialogSpinner() : void&lt;/p&gt;" style="verticalAlign=top;align=left;overflow=fill;fontSize=12;fontFamily=Helvetica;html=1;shadow=0;fillColor=none;" vertex="1" parent="1">
          <mxGeometry x="710" y="180" width="345" height="380" as="geometry" />
        </mxCell>
        <mxCell id="MVIskVAGgqlM6cvmi6DJ-11" value="&lt;p style=&quot;margin: 0px ; margin-top: 4px ; text-align: center&quot;&gt;&lt;b&gt;TaskViewHolder&lt;/b&gt;&lt;/p&gt;&lt;hr size=&quot;1&quot;&gt;&lt;p style=&quot;margin: 0px ; margin-left: 4px&quot;&gt;- imgProject : AppCaompatImageView&lt;/p&gt;&lt;p style=&quot;margin: 0px ; margin-left: 4px&quot;&gt;- lblTaskName : TextView&lt;/p&gt;&lt;p style=&quot;margin: 0px ; margin-left: 4px&quot;&gt;- lblProjectName : TextView&lt;/p&gt;&lt;p style=&quot;margin: 0px ; margin-left: 4px&quot;&gt;- imgDelete : AppcompatImageView&lt;/p&gt;&lt;hr size=&quot;1&quot;&gt;&lt;p style=&quot;margin: 0px ; margin-left: 4px&quot;&gt;- TaskViewHolder(ItemView : View, deleteTaskListener : DeleteTaskListener&lt;/p&gt;&lt;p style=&quot;margin: 0px ; margin-left: 4px&quot;&gt;- bind(task : Task) : void&lt;/p&gt;" style="verticalAlign=top;align=left;overflow=fill;fontSize=12;fontFamily=Helvetica;html=1;shadow=0;labelBackgroundColor=none;fillColor=none;" vertex="1" parent="1">
          <mxGeometry x="662.5" y="720" width="420" height="130" as="geometry" />
        </mxCell>
        <mxCell id="MVIskVAGgqlM6cvmi6DJ-12" value="&lt;p style=&quot;margin: 0px ; margin-top: 4px ; text-align: center&quot;&gt;&lt;i&gt;&amp;lt;&amp;lt;enumeration&amp;gt;&amp;gt;&lt;/i&gt;&lt;br&gt;&lt;b&gt;SortMethod&lt;/b&gt;&lt;/p&gt;&lt;hr size=&quot;1&quot;&gt;&lt;p style=&quot;margin: 0px ; margin-left: 4px&quot;&gt;ALPHABETICAL&lt;br&gt;ALPHABETICAL_INVERTED&lt;/p&gt;&lt;p style=&quot;margin: 0px ; margin-left: 4px&quot;&gt;RECENT_FIRST&lt;/p&gt;&lt;p style=&quot;margin: 0px ; margin-left: 4px&quot;&gt;OLD_FIRST&lt;/p&gt;" style="verticalAlign=top;align=left;overflow=fill;fontSize=12;fontFamily=Helvetica;html=1;shadow=0;labelBackgroundColor=none;fillColor=none;" vertex="1" parent="1">
          <mxGeometry x="777.5" y="20" width="190" height="110" as="geometry" />
        </mxCell>
        <mxCell id="MVIskVAGgqlM6cvmi6DJ-14" value="&lt;p style=&quot;margin: 0px ; margin-top: 4px ; text-align: center&quot;&gt;&lt;b&gt;TaskViewModel&lt;/b&gt;&lt;/p&gt;&lt;hr size=&quot;1&quot;&gt;&lt;p style=&quot;margin: 0px ; margin-left: 4px&quot;&gt;- mExecutor : Executor&lt;/p&gt;&lt;p style=&quot;margin: 0px ; margin-left: 4px&quot;&gt;- mProjects : LiveData&amp;lt;List&amp;lt;Project&amp;gt;&amp;gt;&lt;/p&gt;&lt;p style=&quot;margin: 0px ; margin-left: 4px&quot;&gt;- mProjectDataSource : ProjectDataRepository&lt;/p&gt;&lt;p style=&quot;margin: 0px ; margin-left: 4px&quot;&gt;- mTaskDataSource : TaskDataRepository&lt;/p&gt;&lt;hr size=&quot;1&quot;&gt;&lt;p style=&quot;margin: 0px ; margin-left: 4px&quot;&gt;+ TaskViewModel(projectDataSource : ProjectDataRepository, taskDataSource : TaskDataRepository, executor : Executor&lt;/p&gt;&lt;p style=&quot;margin: 0px ; margin-left: 4px&quot;&gt;+ init() : void&lt;/p&gt;&lt;p style=&quot;margin: 0px ; margin-left: 4px&quot;&gt;+ getProjects() : LiveData&amp;lt;List&amp;lt;Project&amp;gt;&amp;gt;&lt;/p&gt;&lt;p style=&quot;margin: 0px ; margin-left: 4px&quot;&gt;+ getTasks() : LiveData&amp;lt;List&amp;lt;Task&amp;gt;&amp;gt;&lt;/p&gt;&lt;p style=&quot;margin: 0px ; margin-left: 4px&quot;&gt;+ createTask(task : Task) : void&lt;/p&gt;&lt;p style=&quot;margin: 0px ; margin-left: 4px&quot;&gt;+ deleteTask(task : Task) : void&lt;/p&gt;" style="verticalAlign=top;align=left;overflow=fill;fontSize=12;fontFamily=Helvetica;html=1;shadow=0;labelBackgroundColor=none;fillColor=none;" vertex="1" parent="1">
          <mxGeometry x="1130" y="180" width="670" height="210" as="geometry" />
        </mxCell>
        <mxCell id="MVIskVAGgqlM6cvmi6DJ-16" value="&lt;p style=&quot;margin: 0px ; margin-top: 4px ; text-align: center&quot;&gt;&lt;b&gt;TasksAdapter&lt;/b&gt;&lt;/p&gt;&lt;hr size=&quot;1&quot;&gt;&lt;p style=&quot;margin: 0px ; margin-left: 4px&quot;&gt;- deleteTaskListener : DeleteTaskListener&lt;/p&gt;&lt;p style=&quot;margin: 0px ; margin-left: 4px&quot;&gt;- tasks : Task&lt;/p&gt;&lt;hr size=&quot;1&quot;&gt;&lt;p style=&quot;margin: 0px ; margin-left: 4px&quot;&gt;- TasksAdapter(deleteTaskListener : DeleteTaskListener)&lt;/p&gt;&lt;p style=&quot;margin: 0px ; margin-left: 4px&quot;&gt;- updateTasks(tasks : List&amp;lt;Task&amp;gt;) : void&lt;/p&gt;&lt;p style=&quot;margin: 0px ; margin-left: 4px&quot;&gt;+ onCreateViewHolder(viewGroup, viewType : int) : TaskViewHolder&lt;/p&gt;&lt;p style=&quot;margin: 0px ; margin-left: 4px&quot;&gt;+onBindViewHolder(taskViewHolder : TaskViewHolder, position : int) : void&lt;/p&gt;&lt;p style=&quot;margin: 0px ; margin-left: 4px&quot;&gt;+ getItemCount() : int&lt;/p&gt;" style="verticalAlign=top;align=left;overflow=fill;fontSize=12;fontFamily=Helvetica;html=1;shadow=0;labelBackgroundColor=none;fillColor=none;" vertex="1" parent="1">
          <mxGeometry x="1130" y="600" width="414" height="150" as="geometry" />
        </mxCell>
        <mxCell id="MVIskVAGgqlM6cvmi6DJ-17" value="model" style="shape=folder;fontStyle=1;spacingTop=10;tabWidth=40;tabHeight=14;tabPosition=left;html=1;shadow=0;labelBackgroundColor=none;align=right;labelBorderColor=#000000;labelPosition=left;verticalLabelPosition=top;verticalAlign=bottom;" vertex="1" parent="1">
          <mxGeometry x="30" y="-20" width="400" height="900" as="geometry" />
        </mxCell>
        <mxCell id="MVIskVAGgqlM6cvmi6DJ-15" value="&lt;p style=&quot;margin: 0px ; margin-top: 4px ; text-align: center&quot;&gt;&lt;b&gt;TaskRecentComparator&lt;/b&gt;&lt;/p&gt;&lt;hr size=&quot;1&quot;&gt;&lt;p style=&quot;margin: 0px ; margin-left: 4px&quot;&gt;+ conpare(left : Task, right : Task) : int&lt;/p&gt;&lt;p style=&quot;margin: 0px ; margin-left: 4px&quot;&gt;&lt;br&gt;&lt;/p&gt;" style="verticalAlign=top;align=left;overflow=fill;fontSize=12;fontFamily=Helvetica;html=1;shadow=0;labelBackgroundColor=none;fillColor=none;" vertex="1" parent="1">
          <mxGeometry x="65" y="260" width="210" height="50" as="geometry" />
        </mxCell>
        <mxCell id="MVIskVAGgqlM6cvmi6DJ-18" value="&lt;p style=&quot;margin: 0px ; margin-top: 4px ; text-align: center&quot;&gt;&lt;i&gt;&amp;lt;&amp;lt;Entity&amp;gt;&amp;gt;&lt;/i&gt;&lt;/p&gt;&lt;p style=&quot;margin: 0px ; margin-top: 4px ; text-align: center&quot;&gt;&lt;i&gt;&amp;lt;&amp;lt;ORM Persistable&amp;gt;&lt;br&gt;&lt;/i&gt;&lt;b&gt;Project&lt;/b&gt;&lt;/p&gt;&lt;hr size=&quot;1&quot;&gt;&lt;p style=&quot;margin: 0px ; margin-left: 4px&quot;&gt;&amp;lt;&amp;lt;Property&amp;gt;&amp;gt; - id : long&lt;br&gt;&amp;lt;&amp;lt;Property&amp;gt;&amp;gt; - name : String&lt;/p&gt;&lt;p style=&quot;margin: 0px ; margin-left: 4px&quot;&gt;&amp;lt;&amp;lt;Property&amp;gt;&amp;gt; - color : int&lt;/p&gt;&lt;hr size=&quot;1&quot;&gt;&lt;p style=&quot;margin: 0px ; margin-left: 4px&quot;&gt;+ Project(id : long, name : String, color : int)&lt;br&gt;+ getAllProjects() : Project()&lt;/p&gt;&lt;p style=&quot;margin: 0px ; margin-left: 4px&quot;&gt;+getProjectById(id: long) : Project&lt;/p&gt;&lt;p style=&quot;margin: 0px ; margin-left: 4px&quot;&gt;+toString() : String&lt;/p&gt;" style="verticalAlign=top;align=left;overflow=fill;fontSize=12;fontFamily=Helvetica;html=1;shadow=0;labelBackgroundColor=none;fillColor=#ffffff;" vertex="1" parent="1">
          <mxGeometry x="100" y="10" width="250" height="200" as="geometry" />
        </mxCell>
        <mxCell id="MVIskVAGgqlM6cvmi6DJ-27" value="&lt;p style=&quot;margin: 0px ; margin-top: 4px ; text-align: center&quot;&gt;&lt;i&gt;&amp;lt;&amp;lt;Entity&amp;gt;&amp;gt;&lt;/i&gt;&lt;/p&gt;&lt;p style=&quot;margin: 0px ; margin-top: 4px ; text-align: center&quot;&gt;&lt;i&gt;&amp;lt;&amp;lt;ORM Persistable&amp;gt;&amp;gt;&lt;br&gt;&lt;/i&gt;&lt;b&gt;Task&lt;/b&gt;&lt;/p&gt;&lt;hr size=&quot;1&quot;&gt;&lt;p style=&quot;margin: 0px ; margin-left: 4px&quot;&gt;&amp;lt;&amp;lt;Property&amp;gt;&amp;gt; - id: long&lt;/p&gt;&lt;p style=&quot;margin: 0px ; margin-left: 4px&quot;&gt;&amp;lt;&amp;lt;Property&amp;gt;&amp;gt; - projectId: long&lt;/p&gt;&lt;p style=&quot;margin: 0px ; margin-left: 4px&quot;&gt;&amp;lt;&amp;lt;Property&amp;gt;&amp;gt; - name: String&lt;/p&gt;&lt;p style=&quot;margin: 0px ; margin-left: 4px&quot;&gt;&amp;lt;&amp;lt;Property&amp;gt;&amp;gt; - creationTimeStamp: long&lt;/p&gt;&lt;hr size=&quot;1&quot;&gt;&lt;p style=&quot;margin: 0px ; margin-left: 4px&quot;&gt;+ Task(projectId : long&lt;/p&gt;&lt;p style=&quot;margin: 0px ; margin-left: 4px&quot;&gt;- setProjectId(projectId : long) : void&lt;br&gt;+ getProject() : Project&lt;/p&gt;&lt;p style=&quot;margin: 0px ; margin-left: 4px&quot;&gt;- setName(name : String) : void&lt;/p&gt;&lt;p style=&quot;margin: 0px ; margin-left: 4px&quot;&gt;- setCreationTimeStamp(creationTimeStamp : long) : void&lt;/p&gt;" style="verticalAlign=top;align=left;overflow=fill;fontSize=12;fontFamily=Helvetica;html=1;shadow=0;labelBackgroundColor=none;fillColor=#ffffff;" vertex="1" parent="1">
          <mxGeometry x="65" y="430" width="330" height="210" as="geometry" />
        </mxCell>
        <mxCell id="MVIskVAGgqlM6cvmi6DJ-34" value="TaskZAComparator" style="swimlane;fontStyle=1;childLayout=stackLayout;horizontal=1;startSize=26;fillColor=none;horizontalStack=0;resizeParent=1;resizeParentMax=0;resizeLast=0;collapsible=1;marginBottom=0;shadow=0;labelBackgroundColor=none;" vertex="1" parent="1">
          <mxGeometry x="180" y="700" width="220" height="52" as="geometry" />
        </mxCell>
        <mxCell id="MVIskVAGgqlM6cvmi6DJ-35" value="+ compare(left : Task, right : Task) : int" style="text;strokeColor=none;fillColor=none;align=left;verticalAlign=top;spacingLeft=4;spacingRight=4;overflow=hidden;rotatable=0;points=[[0,0.5],[1,0.5]];portConstraint=eastwest;" vertex="1" parent="MVIskVAGgqlM6cvmi6DJ-34">
          <mxGeometry y="26" width="220" height="26" as="geometry" />
        </mxCell>
        <mxCell id="MVIskVAGgqlM6cvmi6DJ-23" value="TaskAZComparator" style="swimlane;fontStyle=1;childLayout=stackLayout;horizontal=1;startSize=26;fillColor=none;horizontalStack=0;resizeParent=1;resizeParentMax=0;resizeLast=0;collapsible=1;marginBottom=0;shadow=0;labelBackgroundColor=none;" vertex="1" parent="1">
          <mxGeometry x="65" y="770" width="220" height="52" as="geometry" />
        </mxCell>
        <mxCell id="MVIskVAGgqlM6cvmi6DJ-24" value="+ compare(left : Task, right : Task) : int" style="text;strokeColor=none;fillColor=none;align=left;verticalAlign=top;spacingLeft=4;spacingRight=4;overflow=hidden;rotatable=0;points=[[0,0.5],[1,0.5]];portConstraint=eastwest;" vertex="1" parent="MVIskVAGgqlM6cvmi6DJ-23">
          <mxGeometry y="26" width="220" height="26" as="geometry" />
        </mxCell>
        <mxCell id="MVIskVAGgqlM6cvmi6DJ-19" value="TaskOldComparator" style="swimlane;fontStyle=1;childLayout=stackLayout;horizontal=1;startSize=26;fillColor=none;horizontalStack=0;resizeParent=1;resizeParentMax=0;resizeLast=0;collapsible=1;marginBottom=0;shadow=0;labelBackgroundColor=none;" vertex="1" parent="1">
          <mxGeometry x="170" y="318" width="225" height="52" as="geometry" />
        </mxCell>
        <mxCell id="MVIskVAGgqlM6cvmi6DJ-20" value="+ compare(left : Task, right : Task) : int" style="text;strokeColor=none;fillColor=none;align=left;verticalAlign=top;spacingLeft=4;spacingRight=4;overflow=hidden;rotatable=0;points=[[0,0.5],[1,0.5]];portConstraint=eastwest;" vertex="1" parent="MVIskVAGgqlM6cvmi6DJ-19">
          <mxGeometry y="26" width="225" height="26" as="geometry" />
        </mxCell>
        <mxCell id="MVIskVAGgqlM6cvmi6DJ-55" value="" style="endArrow=ERzeroToMany;startArrow=cross;endFill=1;startFill=0;endSize=8;startSize=10;html=1;sketch=0;shadow=0;strokeColor=#000000;exitX=0.003;exitY=0.044;exitDx=0;exitDy=0;exitPerimeter=0;" edge="1" parent="1" source="MVIskVAGgqlM6cvmi6DJ-6">
          <mxGeometry width="160" relative="1" as="geometry">
            <mxPoint x="640" y="80" as="sourcePoint" />
            <mxPoint x="370" y="200" as="targetPoint" />
            <Array as="points">
              <mxPoint x="560" y="197" />
              <mxPoint x="350" y="200" />
            </Array>
          </mxGeometry>
        </mxCell>
        <mxCell id="MVIskVAGgqlM6cvmi6DJ-57" value="allProjects" style="edgeLabel;html=1;align=center;verticalAlign=middle;resizable=0;points=[];" vertex="1" connectable="0" parent="MVIskVAGgqlM6cvmi6DJ-55">
          <mxGeometry x="0.655" y="2" relative="1" as="geometry">
            <mxPoint x="-0.91" y="8.66" as="offset" />
          </mxGeometry>
        </mxCell>
        <mxCell id="MVIskVAGgqlM6cvmi6DJ-63" value="" style="endArrow=none;startArrow=circlePlus;endFill=0;startFill=0;endSize=8;html=1;shadow=0;strokeColor=#000000;exitX=0.269;exitY=0.002;exitDx=0;exitDy=0;exitPerimeter=0;entryX=0.133;entryY=1;entryDx=0;entryDy=0;entryPerimeter=0;" edge="1" parent="1" source="MVIskVAGgqlM6cvmi6DJ-6" target="MVIskVAGgqlM6cvmi6DJ-12">
          <mxGeometry width="160" relative="1" as="geometry">
            <mxPoint x="780" y="150" as="sourcePoint" />
            <mxPoint x="940" y="150" as="targetPoint" />
          </mxGeometry>
        </mxCell>
        <mxCell id="MVIskVAGgqlM6cvmi6DJ-64" value="" style="endArrow=ERzeroToMany;startArrow=cross;endFill=1;startFill=0;endSize=8;html=1;shadow=0;strokeColor=#000000;exitX=0.667;exitY=0;exitDx=0;exitDy=0;exitPerimeter=0;" edge="1" parent="1" source="MVIskVAGgqlM6cvmi6DJ-6">
          <mxGeometry width="160" relative="1" as="geometry">
            <mxPoint x="905" y="160" as="sourcePoint" />
            <mxPoint x="938" y="150" as="targetPoint" />
            <Array as="points">
              <mxPoint x="938" y="130" />
            </Array>
          </mxGeometry>
        </mxCell>
        <mxCell id="MVIskVAGgqlM6cvmi6DJ-65" value="" style="endArrow=none;startArrow=circlePlus;endFill=0;startFill=0;endSize=8;html=1;shadow=0;strokeColor=#000000;exitX=0.074;exitY=0.005;exitDx=0;exitDy=0;exitPerimeter=0;entryX=0.116;entryY=1;entryDx=0;entryDy=0;entryPerimeter=0;" edge="1" parent="1" source="MVIskVAGgqlM6cvmi6DJ-27" target="MVIskVAGgqlM6cvmi6DJ-15">
          <mxGeometry width="160" relative="1" as="geometry">
            <mxPoint x="270" y="420" as="sourcePoint" />
            <mxPoint x="430" y="420" as="targetPoint" />
          </mxGeometry>
        </mxCell>
        <mxCell id="MVIskVAGgqlM6cvmi6DJ-66" value="" style="endArrow=none;startArrow=circlePlus;endFill=0;startFill=0;endSize=8;html=1;shadow=0;strokeColor=#000000;exitX=0.75;exitY=0;exitDx=0;exitDy=0;entryX=0.623;entryY=1.016;entryDx=0;entryDy=0;entryPerimeter=0;" edge="1" parent="1" source="MVIskVAGgqlM6cvmi6DJ-27" target="MVIskVAGgqlM6cvmi6DJ-20">
          <mxGeometry width="160" relative="1" as="geometry">
            <mxPoint x="270" y="530" as="sourcePoint" />
            <mxPoint x="430" y="530" as="targetPoint" />
          </mxGeometry>
        </mxCell>
        <mxCell id="MVIskVAGgqlM6cvmi6DJ-67" value="" style="endArrow=none;startArrow=circlePlus;endFill=0;startFill=0;endSize=8;html=1;shadow=0;strokeColor=#000000;entryX=0.727;entryY=-0.012;entryDx=0;entryDy=0;entryPerimeter=0;exitX=0.833;exitY=1;exitDx=0;exitDy=0;exitPerimeter=0;" edge="1" parent="1" source="MVIskVAGgqlM6cvmi6DJ-27" target="MVIskVAGgqlM6cvmi6DJ-34">
          <mxGeometry width="160" relative="1" as="geometry">
            <mxPoint x="270" y="670" as="sourcePoint" />
            <mxPoint x="430" y="670" as="targetPoint" />
          </mxGeometry>
        </mxCell>
        <mxCell id="MVIskVAGgqlM6cvmi6DJ-68" value="" style="endArrow=none;startArrow=circlePlus;endFill=0;startFill=0;endSize=8;html=1;shadow=0;strokeColor=#000000;exitX=0.168;exitY=1.004;exitDx=0;exitDy=0;exitPerimeter=0;entryX=0.25;entryY=0;entryDx=0;entryDy=0;" edge="1" parent="1" source="MVIskVAGgqlM6cvmi6DJ-27" target="MVIskVAGgqlM6cvmi6DJ-23">
          <mxGeometry width="160" relative="1" as="geometry">
            <mxPoint x="270" y="670" as="sourcePoint" />
            <mxPoint x="107" y="768" as="targetPoint" />
          </mxGeometry>
        </mxCell>
        <mxCell id="MVIskVAGgqlM6cvmi6DJ-69" value="" style="endArrow=block;dashed=1;endFill=0;endSize=12;html=1;shadow=0;strokeColor=#000000;exitX=0.462;exitY=0.998;exitDx=0;exitDy=0;exitPerimeter=0;" edge="1" parent="1" source="MVIskVAGgqlM6cvmi6DJ-6">
          <mxGeometry width="160" relative="1" as="geometry">
            <mxPoint x="880" y="550" as="sourcePoint" />
            <mxPoint x="870" y="600" as="targetPoint" />
          </mxGeometry>
        </mxCell>
        <mxCell id="MVIskVAGgqlM6cvmi6DJ-10" value="&lt;p style=&quot;margin: 0px ; margin-top: 4px ; text-align: center&quot;&gt;&lt;i&gt;&amp;lt;&amp;lt;Interface&amp;gt;&amp;gt;&lt;/i&gt;&lt;br&gt;&lt;b&gt;DeleteTaskListener&lt;/b&gt;&lt;/p&gt;&lt;hr size=&quot;1&quot;&gt;&lt;p style=&quot;margin: 0px ; margin-left: 4px&quot;&gt;+ onDeleteTask(task : Task) : void&lt;br&gt;&lt;/p&gt;" style="verticalAlign=top;align=left;overflow=fill;fontSize=12;fontFamily=Helvetica;html=1;shadow=0;labelBackgroundColor=none;fillColor=none;" vertex="1" parent="1">
          <mxGeometry x="777.5" y="600" width="190" height="80" as="geometry" />
        </mxCell>
      </root>
    </mxGraphModel>
  </diagram>
</mxfile>
